<svg width="186" height="41" viewBox="0 0 186 41" fill="none" xmlns="http://www.w3.org/2000/svg">
<path fill-rule="evenodd" clip-rule="evenodd" d="M41.2665 30.5614H29.0102V34.8295H32.8187C33.3725 34.8302 33.9035 35.0506 34.295 35.4422C34.6866 35.8338 34.9068 36.3648 34.9073 36.9186V38.9113C34.9068 39.4651 34.6866 39.996 34.295 40.3876C33.9034 40.7792 33.3725 40.9995 32.8187 41.0001H13.9758C13.422 40.9996 12.8909 40.7794 12.4992 40.3878C12.1076 39.9962 11.8873 39.4651 11.8867 38.9113V36.9186C11.8873 36.3647 12.1076 35.8337 12.4992 35.442C12.8909 35.0504 13.4219 34.8301 13.9758 34.8295H17.7826V30.5614H5.52672C2.47891 30.5614 0 28.0825 0 25.0347V5.52672C0 2.47891 2.47891 0 5.52672 0H41.2665C44.3135 0 46.7916 2.47891 46.7916 5.52672V25.0347C46.7924 28.0825 44.3135 30.5614 41.2665 30.5614ZM19.5894 34.8295V36.6362H13.9771C13.9025 36.6362 13.8309 36.6659 13.7781 36.7186C13.7254 36.7714 13.6957 36.843 13.6957 36.9176V38.9102C13.6957 38.9849 13.7254 39.0564 13.7781 39.1092C13.8309 39.162 13.9025 39.1916 13.9771 39.1916H32.8187C32.8934 39.1916 32.9649 39.162 33.0177 39.1092C33.0705 39.0564 33.1001 38.9849 33.1001 38.9102V36.9176C33.1001 36.843 33.0705 36.7714 33.0177 36.7186C32.9649 36.6659 32.8934 36.6362 32.8187 36.6362H27.2034V36.6355H27.2033V34.8288V30.5614H19.5893L19.589 34.8288V34.8295H19.5894ZM41.2665 28.7547H28.1387L28.123 28.7543L28.107 28.7542H18.6858L18.6721 28.7543L18.6541 28.7547H5.52672C3.47524 28.7547 1.80668 27.0862 1.80668 25.0347V17.0844H8.39625V24.4253C8.39625 24.9732 8.84037 25.4173 9.38824 25.4173C9.9361 25.4173 10.3802 24.9732 10.3802 24.4253V10.6055L16.9839 24.8319C17.1151 25.1146 17.3626 25.3063 17.643 25.3766L17.6626 25.3829C18.1857 25.5458 18.7418 25.2537 18.9046 24.7306L21.7626 15.5491L24.0514 19.5135C24.3254 19.988 24.932 20.1506 25.4065 19.8766C25.6465 19.7381 25.8067 19.5143 25.871 19.2656C25.8876 19.2419 25.9033 19.2173 25.918 19.1918L27.1469 17.0633H30.0008C30.5487 17.0633 30.9928 16.6192 30.9928 16.0713C30.9928 15.5234 30.5487 15.0793 30.0008 15.0793H26.9669C26.9027 15.0793 26.8399 15.0854 26.779 15.0971C26.3709 15.0116 25.9367 15.1915 25.7168 15.5723L24.8918 17.0012L22.4103 12.7031C22.3611 12.6178 22.301 12.5426 22.2329 12.4781C22.1155 12.3405 21.9591 12.2334 21.7737 12.1757C21.2506 12.0129 20.6945 12.3049 20.5317 12.828L17.749 21.7679L10.3159 5.75482C10.0853 5.25789 9.49542 5.04204 8.99849 5.27271C8.69392 5.41408 8.49493 5.69038 8.43963 5.99751C8.41142 6.08955 8.39625 6.18728 8.39625 6.28856V15.1004H1.80668V5.52672C1.80668 3.47524 3.47524 1.80668 5.52672 1.80668H41.2665C43.3172 1.80668 44.9857 3.47524 44.9857 5.52672V25.0347C44.9857 27.0862 43.3172 28.7547 41.2665 28.7547Z" fill="url(#paint0_linear_4994_5107)"/>
<path fill-rule="evenodd" clip-rule="evenodd" d="M79.95 31.1707L79.893 31.3539C79.7188 31.9134 79.1251 32.2417 78.4901 32.1711C78.0219 32.1626 77.5946 31.9295 77.389 31.526C77.3085 31.4078 77.2484 31.2795 77.2119 31.1463L69.4299 14.3814V31.312C69.4299 32.0108 68.8033 32.5773 68.0302 32.5773C67.2572 32.5773 66.6305 32.0108 66.6305 31.312V22.0299C66.4448 22.1482 66.2295 22.2158 65.9999 22.2158H57.237V31.3226C57.237 32.0214 56.6103 32.5879 55.8372 32.5879C55.0642 32.5879 54.4375 32.0214 54.4375 31.3226V8.18845C54.4375 7.48963 55.0642 6.92312 55.8372 6.92312C56.6103 6.92312 57.237 7.48963 57.237 8.18845V19.4164H65.9999C66.2295 19.4164 66.4448 19.4841 66.6305 19.6023V8.17788C66.6305 7.83736 66.7793 7.52826 67.0213 7.30081C67.1544 7.15358 67.3217 7.02806 67.5176 6.93711C68.2188 6.61163 69.0213 6.85208 69.3101 7.47418L78.3393 26.926L81.5053 16.7549C81.5228 16.6639 81.5512 16.5747 81.5895 16.4887C81.6828 16.2338 81.8653 16.0306 82.0983 15.8962C82.2196 15.8151 82.356 15.7492 82.5048 15.7029C83.2429 15.4732 84.0051 15.8134 84.2073 16.4629L87.2273 26.165L89.8245 17.8211C89.8415 17.7665 89.8633 17.7144 89.8894 17.6651L89.6671 17.5107C90.8072 15.1038 93.4528 14.489 95.6485 14.4127C95.8345 14.3926 96.0185 14.3821 96.1995 14.3821C98.4779 14.3821 100.641 15.3861 102.262 17.0079C102.571 17.3168 102.842 17.6257 103.073 17.9733C103.344 17.6257 103.614 17.3168 103.923 17.0079C105.545 15.3861 107.708 14.3821 109.986 14.3821C112.264 14.3821 114.388 15.2316 116.01 16.8534C117.632 18.4753 118.521 20.5991 118.521 22.916V32.4154H115.199V22.916C115.199 20.0199 112.844 17.6257 109.986 17.6257C107.09 17.6257 104.734 20.0199 104.734 22.916V32.4154H101.413V22.916C101.413 20.0199 99.0958 17.6257 96.1995 17.6257C96.184 17.6257 96.1686 17.6258 96.1531 17.626V17.6477C95.3862 17.6477 94.6553 17.8202 93.9965 18.1285C93.3173 18.4546 92.7164 18.9257 92.2335 19.5011L88.5173 31.4399C88.3669 31.923 87.8404 32.207 87.2502 32.1694C86.6383 32.2126 86.076 31.8855 85.9067 31.3415L85.8881 31.2818C85.8585 31.2124 85.8363 31.1413 85.822 31.0694L82.9017 21.6879L79.9656 31.1206C79.9607 31.1374 79.9555 31.1541 79.95 31.1707ZM167.006 11.8721C168.203 11.8721 169.168 10.8681 169.168 9.67098C169.168 8.47391 168.203 7.50852 167.006 7.50852C165.77 7.50852 164.805 8.47391 164.805 9.67098C164.805 10.8681 165.77 11.8721 167.006 11.8721ZM168.666 32.4154V14.7296H165.345V32.4154H168.666ZM137.352 17.0079C135.614 15.2702 133.297 14.3434 130.825 14.3434C128.354 14.3434 126.037 15.2702 124.26 17.0079C122.522 18.7842 121.557 21.1011 121.557 23.5725C121.557 26.0439 122.522 28.3608 124.26 30.1371C126.037 31.8748 128.354 32.8402 130.825 32.8402C133.297 32.8402 135.614 31.8748 137.352 30.1371C139.128 28.3608 140.093 26.0439 140.093 23.5725C140.093 21.1011 139.128 18.7842 137.352 17.0079ZM130.825 29.5193C127.543 29.5193 124.878 26.8548 124.878 23.5725C124.878 20.2902 127.543 17.6644 130.825 17.6644C134.108 17.6644 136.772 20.2902 136.772 23.5725C136.772 26.8548 134.108 29.5193 130.825 29.5193ZM151.982 14.3821C154.26 14.3821 156.423 15.2316 158.045 16.8534C159.628 18.4753 160.516 20.5991 160.516 22.916V32.4154H157.195V22.916C157.195 20.0199 154.878 17.6257 151.982 17.6257C149.124 17.6257 146.769 20.0199 146.769 22.916V32.4154H143.447V14.7296H146.769V16.4287C148.275 15.2702 150.09 14.3821 151.982 14.3821ZM185.417 32.4154H181.516C178.272 32.4154 175.646 29.8282 175.646 26.5459V17.8961H173.02V14.7296H175.646V7.89468H178.967V14.7296H184.412V17.8961H178.967V26.4687C178.967 27.8974 180.203 29.249 181.593 29.249H184.567L185.417 32.4154Z" fill="white"/>
<defs>
<linearGradient id="paint0_linear_4994_5107" x1="23.3958" y1="0" x2="23.3958" y2="41" gradientUnits="userSpaceOnUse">
<stop stop-color="#74F9A3"/>
<stop offset="1" stop-color="#3F7EEA"/>
</linearGradient>
</defs>
</svg>
