<svg width="140" height="111" viewBox="0 0 140 111" fill="none" xmlns="http://www.w3.org/2000/svg">
<path fill-rule="evenodd" clip-rule="evenodd" d="M104.879 55.7323H82.532V63.5171H89.4748C90.4847 63.5183 91.4529 63.9201 92.167 64.6343C92.881 65.3485 93.2826 66.3168 93.2836 67.3268V70.9606C93.2826 71.9705 92.881 72.9387 92.1669 73.6529C91.4529 74.367 90.4847 74.7687 89.4748 74.7698H55.1126C54.1025 74.7689 53.1341 74.3674 52.4198 73.6532C51.7056 72.939 51.3039 71.9706 51.3029 70.9606V67.3268C51.3039 66.3167 51.7056 65.3482 52.4198 64.634C53.134 63.9198 54.1025 63.5181 55.1126 63.5171H62.0571V55.7323H39.7036C34.1456 55.7323 29.625 51.2117 29.625 45.6537V10.0786C29.625 4.52059 34.1456 0 39.7036 0H104.879C110.436 0 114.955 4.52059 114.955 10.0786V45.6537C114.956 51.2117 110.436 55.7323 104.879 55.7323ZM63.6781 66.8118H55.1149C54.9788 66.8118 54.8483 66.8658 54.7521 66.9621C54.6558 67.0583 54.6018 67.1888 54.6018 67.3249V70.9587C54.6018 71.0948 54.6558 71.2253 54.7521 71.3216C54.8483 71.4178 54.9788 71.4718 55.1149 71.4718H89.4748C89.6109 71.4718 89.7414 71.4178 89.8376 71.3216C89.9339 71.2253 89.9879 71.0948 89.9879 70.9587V67.3249C89.9879 67.1888 89.9339 67.0583 89.8376 66.9621C89.7414 66.8658 89.6109 66.8118 89.4748 66.8118H80.911L80.8849 66.812H79.2368V66.8118H79.2346V63.5171H79.2368V55.7342H65.3518L65.3514 63.5173V66.812H63.7042L63.6781 66.8118ZM39.7036 3.2947C35.9625 3.2947 32.9197 6.3375 32.9197 10.0786V27.5361H44.9366V11.4668C44.9366 11.2714 44.9676 11.0832 45.025 10.9068C45.1338 10.3598 45.4933 9.87027 46.038 9.61743C46.9442 9.19678 48.0198 9.59041 48.4405 10.4966L61.9911 39.6889L67.0631 23.3946C67.36 22.4406 68.3741 21.908 69.328 22.205C69.6386 22.3016 69.9046 22.4744 70.1118 22.6963C70.2627 22.8258 70.3947 22.9827 70.4998 23.1648L75.0247 31.0021L76.5257 28.4023C76.9205 27.7185 77.6942 27.39 78.4284 27.5287C78.5492 27.5033 78.6745 27.4899 78.8028 27.4899H84.3355C85.3346 27.4899 86.1445 28.2999 86.1445 29.299C86.1445 30.298 85.3346 31.108 84.3355 31.108H79.1413L76.8927 35.0027C76.867 35.0473 76.8396 35.0903 76.8108 35.1318C76.6937 35.5855 76.4015 35.9937 75.9637 36.2465C75.0984 36.7461 73.9921 36.4496 73.4925 35.5844L69.3119 28.3434L64.0959 45.1003C63.799 46.0543 62.7849 46.5869 61.831 46.2899C61.8151 46.285 61.7993 46.2798 61.7836 46.2745C61.2799 46.1425 60.8367 45.7951 60.6003 45.2859L48.5546 19.3357V44.5413C48.5546 45.5404 47.7447 46.3503 46.7456 46.3503C45.7465 46.3503 44.9366 45.5404 44.9366 44.5413V31.1541H32.9197V45.6537C32.9197 49.3948 35.9625 52.4376 39.7036 52.4376H104.879C108.619 52.4376 111.662 49.3948 111.662 45.6537V10.0786C111.662 6.3375 108.619 3.2947 104.879 3.2947H39.7036Z" fill="url(#paint0_linear_4994_3065)"/>
<path fill-rule="evenodd" clip-rule="evenodd" d="M28.8743 92.8879C28.7867 93.0393 28.7294 93.2034 28.7075 93.3719L25.3721 104.087L15.7851 83.4339C15.4787 82.7737 14.627 82.5185 13.8829 82.864C13.6601 82.9674 13.4722 83.1129 13.3265 83.2837C13.0867 83.5222 12.9405 83.839 12.9405 84.1867V96.3086C12.7425 96.1813 12.5124 96.1084 12.2669 96.1084H2.9709V84.2021C2.9709 83.4605 2.30584 82.8593 1.48545 82.8593C0.665059 82.8593 0 83.4605 0 84.2021V108.753C0 109.495 0.665059 110.096 1.48545 110.096C2.30584 110.096 2.9709 109.495 2.9709 108.753V99.0793H12.2669C12.5124 99.0793 12.7425 99.0064 12.9405 98.8791V108.738C12.9405 109.479 13.6056 110.08 14.426 110.08C15.2464 110.08 15.9114 109.479 15.9114 108.738V90.7622L24.1789 108.573C24.217 108.708 24.278 108.838 24.359 108.959C24.5656 109.364 24.9829 109.607 25.4482 109.64C26.1533 109.755 26.8291 109.403 27.0216 108.784L30.2068 98.5514L33.314 108.534C33.3253 108.58 33.3397 108.626 33.357 108.672L33.3902 108.779C33.5703 109.357 34.1689 109.704 34.8196 109.657C35.4461 109.697 36.0051 109.395 36.1647 108.883L40.107 96.2176C40.9124 95.2547 42.029 94.5659 43.2915 94.3197C43.6074 94.2617 43.9323 94.2313 44.2635 94.2313V94.2206C44.2829 94.2204 44.3024 94.2203 44.3218 94.2203C47.3955 94.2203 49.8545 96.7611 49.8545 99.8346V109.916H53.379V99.8346C53.379 96.7611 55.8789 94.2203 58.9527 94.2203C61.9854 94.2203 64.4853 96.7611 64.4853 99.8346V109.916H68.0098V99.8346C68.0098 97.3758 67.0672 95.1219 65.346 93.4007C63.6247 91.6795 61.3706 90.778 58.9527 90.778C56.5347 90.778 54.2396 91.8435 52.5183 93.5646C52.1905 93.8925 51.9036 94.2203 51.6167 94.5891C51.3708 94.2203 51.084 93.8925 50.7561 93.5646C49.0348 91.8435 46.7398 90.778 44.3218 90.778C44.1946 90.778 44.066 90.7829 43.9363 90.7924C41.5677 90.8418 38.6265 91.4551 37.3803 94.086L37.6253 94.2561C37.5956 94.3109 37.571 94.3689 37.552 94.4299L34.7937 103.291L31.5868 92.9888C31.3723 92.2995 30.5633 91.9384 29.78 92.1822C29.6204 92.2319 29.4742 92.3029 29.3443 92.3902C29.1431 92.5104 28.9788 92.6797 28.8743 92.8879ZM119.464 88.1143C120.735 88.1143 121.759 87.0488 121.759 85.7784C121.759 84.508 120.735 83.4835 119.464 83.4835C118.153 83.4835 117.128 84.508 117.128 85.7784C117.128 87.0488 118.153 88.1143 119.464 88.1143ZM87.9941 93.5646C86.1499 91.7205 83.6909 90.737 81.068 90.737C78.4451 90.737 75.9861 91.7205 74.1009 93.5646C72.2567 95.4497 71.2321 97.9085 71.2321 100.531C71.2321 103.154 72.2567 105.613 74.1009 107.498C75.9861 109.342 78.4451 110.367 81.068 110.367C83.6909 110.367 86.1499 109.342 87.9941 107.498C89.8793 105.613 90.9039 103.154 90.9039 100.531C90.9039 97.9085 89.8793 95.4497 87.9941 93.5646ZM81.068 106.842C77.5845 106.842 74.7566 104.015 74.7566 100.531C74.7566 97.048 77.5845 94.2613 81.068 94.2613C84.5515 94.2613 87.3793 97.048 87.3793 100.531C87.3793 104.015 84.5515 106.842 81.068 106.842ZM103.52 90.778C105.938 90.778 108.234 91.6795 109.955 93.4007C111.635 95.1219 112.578 97.3758 112.578 99.8346V109.916H109.053V99.8346C109.053 96.7611 106.594 94.2203 103.52 94.2203C100.488 94.2203 97.9878 96.7611 97.9878 99.8346V109.916H94.4633V91.1468H97.9878V92.9499C99.5861 91.7205 101.512 90.778 103.52 90.778ZM139.003 109.916H134.863C131.421 109.916 128.634 107.17 128.634 103.687V94.5072H125.847V91.1468H128.634V83.8933H132.159V91.1468H137.937V94.5072H132.159V103.605C132.159 105.121 133.47 106.555 134.945 106.555H138.101L139.003 109.916ZM117.702 109.916H121.227V91.1468H117.702V109.916Z" fill="white"/>
<defs>
<linearGradient id="paint0_linear_4994_3065" x1="72.29" y1="0" x2="72.29" y2="74.7698" gradientUnits="userSpaceOnUse">
<stop stop-color="#74F9A3"/>
<stop offset="1" stop-color="#3F7EEA"/>
</linearGradient>
</defs>
</svg>
