<svg width="159" height="126" viewBox="0 0 159 126" fill="none" xmlns="http://www.w3.org/2000/svg">
<path fill-rule="evenodd" clip-rule="evenodd" d="M119.678 63.3071H94.2915V72.1487H102.181C103.329 72.1501 104.428 72.6065 105.24 73.4178C106.051 74.2291 106.507 75.329 106.508 76.4761V80.6039C106.507 81.751 106.051 82.8508 105.239 83.662C104.428 84.4732 103.329 84.9295 102.181 84.9308H63.1489C62.0016 84.9298 60.9015 84.4736 60.0902 83.6624C59.2789 82.8512 58.8226 81.7512 58.8214 80.6039V76.4761C58.8226 75.3288 59.2789 74.2287 60.0902 73.4174C60.9015 72.6061 62.0015 72.1498 63.1489 72.1487H71.0339V63.3071H45.6437C39.3303 63.3071 34.1953 58.1721 34.1953 51.8586V11.4484C34.1953 5.13499 39.3303 0 45.6437 0H119.678C125.989 0 131.123 5.13499 131.123 11.4484V51.8586C131.124 58.1721 125.989 63.3071 119.678 63.3071ZM74.7758 72.1487H74.7772V75.8912H63.1516C62.997 75.8912 62.8487 75.9526 62.7394 76.0619C62.6301 76.1712 62.5687 76.3194 62.5687 76.474V80.6017C62.5687 80.7563 62.6301 80.9046 62.7394 81.0139C62.8487 81.1232 62.997 81.1846 63.1516 81.1846H102.181C102.336 81.1846 102.484 81.1232 102.594 81.0139C102.703 80.9046 102.764 80.7563 102.764 80.6017V76.474C102.764 76.3194 102.703 76.1712 102.594 76.0619C102.484 75.9526 102.336 75.8912 102.181 75.8912H90.5495V75.8894H90.5485V72.1469V63.3071H74.7763L74.7758 72.1469V72.1487ZM119.678 59.5646H92.4845C92.4632 59.5638 92.4419 59.5635 92.4206 59.5635H72.9048C72.8835 59.5635 72.8622 59.5638 72.8409 59.5646H45.6437C41.3942 59.5646 37.9378 56.1082 37.9378 51.8586V35.3938H51.5878V50.5972C51.5878 51.7321 52.5078 52.6521 53.6426 52.6521C54.7775 52.6521 55.6975 51.7321 55.6975 50.5972V21.9718L69.3785 51.4449C69.6434 52.0156 70.1369 52.4073 70.6996 52.5617C70.7234 52.5701 70.7475 52.578 70.7717 52.5856C71.8553 52.9229 73.0072 52.3179 73.3445 51.2343L79.2729 32.1885L84.0278 40.4242C84.5952 41.407 85.852 41.7437 86.8348 41.1763C87.3363 40.8867 87.6696 40.4177 87.8004 39.8971C87.8299 39.854 87.8579 39.8094 87.8845 39.7634L90.4374 35.3416H96.3339C97.4688 35.3416 98.3888 34.4216 98.3888 33.2867C98.3888 32.1519 97.4688 31.2319 96.3339 31.2319H90.0493C89.9063 31.2319 89.7668 31.2465 89.6321 31.2742C88.7972 31.115 87.9166 31.4882 87.4676 32.2659L85.7654 35.2143L80.6283 26.3166C80.4971 26.0894 80.3291 25.8967 80.1361 25.7417C79.9072 25.5106 79.62 25.3306 79.2877 25.2272C78.2041 24.8899 77.0523 25.4949 76.715 26.5784L70.9555 45.0813L55.566 11.9273C55.0881 10.898 53.8663 10.4508 52.8369 10.9287C52.2149 11.2174 51.8055 11.7778 51.6843 12.4032C51.6216 12.6001 51.5878 12.8098 51.5878 13.0275V31.2841H37.9378V11.4484C37.9378 7.19885 41.3942 3.74249 45.6437 3.74249H119.678C123.926 3.74249 127.382 7.19885 127.382 11.4484V51.8586C127.382 56.1082 123.926 59.5646 119.678 59.5646Z" fill="url(#paint0_linear_4994_4964)"/>
<path fill-rule="evenodd" clip-rule="evenodd" d="M33.3204 105.579C33.2425 105.727 33.1898 105.885 33.1657 106.046L29.3674 118.249L18.4756 94.7843C18.1275 94.0344 17.1601 93.7445 16.3148 94.1368C16.0641 94.2532 15.8522 94.4166 15.6874 94.6084C15.4176 94.8787 15.2534 95.2369 15.2534 95.6296V109.406C15.0279 109.26 14.7657 109.177 14.4858 109.177H3.92546V95.652C3.92546 94.8096 3.17002 94.1267 2.23812 94.1267C1.30623 94.1267 0.550781 94.8096 0.550781 95.652V123.54C0.550781 124.382 1.30623 125.065 2.23812 125.065C3.17002 125.065 3.92546 124.382 3.92546 123.54V112.552H14.4858C14.7657 112.552 15.0279 112.468 15.2534 112.323V123.517C15.2534 124.36 16.0088 125.043 16.9407 125.043C17.8726 125.043 18.6281 124.36 18.6281 123.517V103.128L28.0193 123.36C28.0605 123.498 28.1226 123.631 28.2034 123.756C28.4357 124.234 28.9226 124.519 29.4653 124.553C30.2626 124.679 31.0247 124.279 31.2425 123.579L34.8628 111.949L38.4105 123.346L38.4159 123.364C38.4199 123.377 38.424 123.39 38.4284 123.403L38.4812 123.573C38.6849 124.227 39.3607 124.621 40.0968 124.571C40.8128 124.621 41.4532 124.278 41.6354 123.692L46.116 109.298C47.1786 108.031 48.7162 107.183 50.4359 107.053C50.566 107.045 50.6972 107.041 50.8292 107.041V107.036C50.8522 107.036 50.8753 107.036 50.8983 107.036C54.3898 107.036 57.183 109.922 57.183 113.413V124.864H61.1865V113.413C61.1865 109.922 64.0262 107.036 67.5177 107.036C70.9626 107.036 73.8024 109.922 73.8024 113.413V124.864H77.8059V113.413C77.8059 110.62 76.7352 108.06 74.78 106.105C72.8247 104.15 70.2643 103.126 67.5177 103.126C64.7711 103.126 62.1641 104.336 60.2089 106.291C59.8365 106.663 59.5106 107.036 59.1847 107.455C58.9054 107.036 58.5796 106.663 58.2071 106.291C56.2519 104.336 53.645 103.126 50.8983 103.126C50.8125 103.126 50.7261 103.128 50.6393 103.131C47.9193 103.16 44.4581 103.819 43.0104 106.875L43.2966 107.074C43.2619 107.137 43.2333 107.205 43.2113 107.275L40.0769 117.345L36.4326 105.637C36.1889 104.854 35.27 104.444 34.3802 104.721C34.2122 104.773 34.0573 104.846 33.9181 104.936C33.6544 105.083 33.4426 105.303 33.3204 105.579ZM136.254 100.1C137.697 100.1 138.861 98.8895 138.861 97.4465C138.861 96.0034 137.697 94.8397 136.254 94.8397C134.764 94.8397 133.6 96.0034 133.6 97.4465C133.6 98.8895 134.764 100.1 136.254 100.1ZM100.506 106.291C98.4114 104.196 95.6182 103.079 92.6388 103.079C89.6594 103.079 86.8663 104.196 84.7248 106.291C82.6299 108.432 81.4661 111.225 81.4661 114.204C81.4661 117.184 82.6299 119.977 84.7248 122.118C86.8663 124.213 89.6594 125.376 92.6388 125.376C95.6182 125.376 98.4114 124.213 100.506 122.118C102.648 119.977 103.812 117.184 103.812 114.204C103.812 111.225 102.648 108.432 100.506 106.291ZM92.6388 121.373C88.6818 121.373 85.4697 118.161 85.4697 114.204C85.4697 110.248 88.6818 107.082 92.6388 107.082C96.5958 107.082 99.808 110.248 99.808 114.204C99.808 118.161 96.5958 121.373 92.6388 121.373ZM118.143 103.126C120.89 103.126 123.496 104.15 125.452 106.105C127.36 108.06 128.431 110.62 128.431 113.413V124.864H124.428V113.413C124.428 109.922 121.634 107.036 118.143 107.036C114.698 107.036 111.858 109.922 111.858 113.413V124.864H107.855V103.545H111.858V105.593C113.674 104.196 115.862 103.126 118.143 103.126ZM158.448 124.864H153.746C149.835 124.864 146.67 121.746 146.67 117.789V107.362H143.504V103.545H146.67V95.3052H150.673V103.545H157.237V107.362H150.673V117.696C150.673 119.418 152.163 121.047 153.839 121.047H157.423L158.448 124.864ZM134.252 124.864H138.256V103.545H134.252V124.864Z" fill="white"/>
<defs>
<linearGradient id="paint0_linear_4994_4964" x1="82.659" y1="0" x2="82.659" y2="84.9308" gradientUnits="userSpaceOnUse">
<stop stop-color="#74F9A3"/>
<stop offset="1" stop-color="#3F7EEA"/>
</linearGradient>
</defs>
</svg>
