<svg width="2787" height="600" viewBox="0 0 2787 600" fill="none" xmlns="http://www.w3.org/2000/svg">
<path d="M2134.18 272.008C2157.32 272.008 2176.08 290.766 2176.08 313.905C2176.08 337.045 2157.32 355.803 2134.18 355.803H1885.42C1862.28 355.803 1843.52 337.045 1843.52 313.905C1843.52 290.766 1862.28 272.008 1885.42 272.008H2134.18Z" fill="white"/>
<path d="M83.4977 542.196C83.4977 565.254 64.8062 583.945 41.7489 583.945C18.6916 583.945 0 565.254 0 542.196V292.011C0 268.954 18.6916 250.262 41.7489 250.262C64.8062 250.262 83.4977 268.954 83.4977 292.011V542.196ZM250.493 333.683C250.493 316.757 247.266 300.637 240.812 285.323C234.358 270.009 225.484 256.71 214.19 245.426C202.895 234.142 189.584 225.276 174.256 218.828C158.928 212.38 142.793 209.156 125.852 209.156H41.7103C18.6743 209.156 0 190.482 0 167.446C0 144.41 18.6744 125.736 41.7104 125.736H125.852C183.937 125.736 233.148 145.886 273.485 186.185C313.822 226.485 333.991 275.651 333.991 333.683V542.196C333.991 565.254 315.299 583.945 292.242 583.945C269.185 583.945 250.493 565.254 250.493 542.196V333.683ZM584.484 542.196C584.484 565.254 565.793 583.945 542.735 583.945C519.678 583.945 500.986 565.254 500.986 542.196V291.368C500.986 268.8 492.919 249.456 476.784 233.336C460.649 217.216 440.884 209.156 417.489 209.156C411.541 209.156 405.871 209.627 400.48 210.568C376.944 214.678 345.273 211.225 331.551 191.666C321.207 176.923 321.076 154.459 336.842 145.753C361.011 132.408 387.893 125.736 417.489 125.736C463.473 125.736 502.6 141.856 534.87 174.095C567.946 207.141 584.484 246.232 584.484 291.368V542.196Z" fill="white"/>
<path d="M812.231 458.21C800.937 458.21 790.852 454.583 781.978 447.329C773.911 439.269 769.877 429.194 769.877 417.104C769.877 393.734 788.861 374.789 812.231 374.789C835.627 374.789 855.392 366.729 871.527 350.609C887.661 334.489 895.729 314.742 895.729 291.368C895.729 268.8 887.661 249.456 871.527 233.336C855.392 217.216 835.627 209.156 812.231 209.156C788.836 209.156 769.07 216.813 752.936 232.127C736.801 247.441 728.733 267.188 728.733 291.368V417.104C728.733 440.478 736.801 460.225 752.936 476.345C769.07 492.465 788.836 500.525 812.231 500.525H854.019C877.055 500.525 895.729 519.199 895.729 542.235C895.729 565.271 877.055 583.945 854.019 583.945H812.231C765.44 583.945 725.91 567.825 693.64 535.585C661.37 503.346 645.236 463.852 645.236 417.104V291.368C645.236 245.426 661.37 206.335 693.64 174.095C725.91 141.856 765.44 125.736 812.231 125.736C858.215 125.736 897.342 141.856 929.612 174.095C962.688 207.141 979.227 246.232 979.227 291.368C979.227 338.116 963.092 377.61 930.822 409.85C898.552 442.09 859.022 458.21 812.231 458.21Z" fill="white"/>
<path d="M1248.08 583.945C1189.99 583.945 1140.78 563.795 1100.45 523.495C1060.11 483.196 1039.94 433.627 1039.94 374.789V41.7489C1039.94 18.6916 1058.63 0 1081.69 0C1104.75 0 1123.44 18.6916 1123.44 41.7489V374.789C1123.44 391.715 1126.66 407.835 1133.12 423.149C1139.57 438.463 1148.45 451.762 1159.74 463.046C1171.04 474.33 1184.35 483.599 1199.68 490.853C1215 497.301 1231.14 500.525 1248.08 500.525H1332.22C1355.26 500.525 1373.93 519.199 1373.93 542.235C1373.93 565.271 1355.26 583.945 1332.22 583.945H1248.08ZM1248.08 167.446C1248.08 190.482 1229.37 209.156 1206.33 209.156C1183.29 209.156 1164.58 190.482 1164.58 167.446C1164.58 144.41 1183.29 125.736 1206.33 125.736C1229.37 125.736 1248.08 144.41 1248.08 167.446Z" fill="white"/>
<path d="M1670.96 291.368C1670.96 268.8 1662.89 249.456 1646.75 233.336C1630.62 217.216 1610.85 209.156 1587.46 209.156H1545.67C1522.64 209.156 1503.96 190.482 1503.96 167.446C1503.96 144.41 1522.64 125.736 1545.67 125.736H1587.46C1633.44 125.736 1672.57 141.856 1704.84 174.095C1737.92 207.141 1754.45 246.232 1754.45 291.368V416.461C1754.45 439.518 1735.76 458.21 1712.71 458.21C1689.65 458.21 1670.96 439.518 1670.96 416.461V291.368ZM1754.45 542.235C1754.45 565.271 1735.78 583.945 1712.74 583.945H1587.46C1540.67 583.945 1501.14 567.825 1468.87 535.585C1436.6 503.346 1420.46 463.852 1420.46 417.104C1420.46 371.162 1436.6 332.071 1468.87 299.831C1501.94 266.785 1541.47 250.262 1587.46 250.262C1598.75 250.262 1608.43 254.292 1616.5 262.352C1624.57 270.412 1628.6 280.084 1628.6 291.368V292.539C1628.6 315.262 1610.18 333.683 1587.46 333.683C1564.06 333.683 1544.3 341.743 1528.16 357.863C1512.03 373.983 1503.96 393.73 1503.96 417.104C1503.96 440.478 1512.03 460.225 1528.16 476.345C1544.3 492.465 1564.06 500.525 1587.46 500.525H1712.74C1735.78 500.525 1754.45 519.199 1754.45 542.235Z" fill="white"/>
<path d="M2635.12 177.267C2657.05 199.194 2692.6 199.194 2714.53 177.267L2770.29 121.508C2792.21 99.5809 2792.21 64.0303 2770.29 42.1034C2748.36 20.1765 2712.81 20.1765 2690.88 42.1034L2635.12 97.8628C2613.2 119.79 2613.2 155.34 2635.12 177.267Z" fill="url(#paint0_linear_6138_1705)"/>
<path d="M2236.31 68.5684C2215.59 89.29 2215.59 122.886 2236.31 143.608L2410.32 317.618C2431.04 338.339 2464.64 338.339 2485.36 317.618C2506.08 296.896 2506.08 263.3 2485.36 242.579L2311.35 68.5684C2290.63 47.8469 2257.03 47.8469 2236.31 68.5684Z" fill="url(#paint1_linear_6138_1705)"/>
<path d="M2287.29 583.55C2265.37 605.477 2229.82 605.477 2207.89 583.55C2185.96 561.623 2185.96 526.073 2207.89 504.146L2256.15 455.883C2278.08 433.956 2313.63 433.956 2335.56 455.883C2357.48 477.81 2357.48 513.361 2335.56 535.288L2287.29 583.55Z" fill="url(#paint2_linear_6138_1705)"/>
<path d="M2504.41 334.259C2483.69 354.98 2483.69 388.576 2504.41 409.298L2678.42 583.308C2699.14 604.03 2732.74 604.03 2753.46 583.308C2774.18 562.587 2774.18 528.99 2753.46 508.269L2579.45 334.259C2558.73 313.537 2525.13 313.537 2504.41 334.259Z" fill="url(#paint3_linear_6138_1705)"/>
<path d="M2269.38 363.536C2248.65 342.814 2248.65 309.218 2269.38 288.497C2290.1 267.775 2323.69 267.775 2344.42 288.497L2518.43 462.507C2539.15 483.228 2539.15 516.825 2518.43 537.546C2497.7 558.268 2464.11 558.268 2443.39 537.546L2269.38 363.536Z" fill="url(#paint4_linear_6138_1705)"/>
<path d="M2462.08 107.959C2441.36 128.68 2441.36 162.276 2462.08 182.998L2636.09 357.008C2656.81 377.73 2690.41 377.73 2711.13 357.008C2731.85 336.286 2731.85 302.69 2711.13 281.969L2537.12 107.959C2516.4 87.237 2482.8 87.237 2462.08 107.959Z" fill="url(#paint5_linear_6138_1705)"/>
<defs>
<linearGradient id="paint0_linear_6138_1705" x1="2489.09" y1="25.6582" x2="2489.09" y2="599.995" gradientUnits="userSpaceOnUse">
<stop stop-color="#74F9A3"/>
<stop offset="1" stop-color="#3F7EEA"/>
</linearGradient>
<linearGradient id="paint1_linear_6138_1705" x1="2489.09" y1="25.6582" x2="2489.09" y2="599.995" gradientUnits="userSpaceOnUse">
<stop stop-color="#74F9A3"/>
<stop offset="1" stop-color="#3F7EEA"/>
</linearGradient>
<linearGradient id="paint2_linear_6138_1705" x1="2489.09" y1="25.6582" x2="2489.09" y2="599.995" gradientUnits="userSpaceOnUse">
<stop stop-color="#74F9A3"/>
<stop offset="1" stop-color="#3F7EEA"/>
</linearGradient>
<linearGradient id="paint3_linear_6138_1705" x1="2489.09" y1="25.6582" x2="2489.09" y2="599.995" gradientUnits="userSpaceOnUse">
<stop stop-color="#74F9A3"/>
<stop offset="1" stop-color="#3F7EEA"/>
</linearGradient>
<linearGradient id="paint4_linear_6138_1705" x1="2489.09" y1="25.6582" x2="2489.09" y2="599.995" gradientUnits="userSpaceOnUse">
<stop stop-color="#74F9A3"/>
<stop offset="1" stop-color="#3F7EEA"/>
</linearGradient>
<linearGradient id="paint5_linear_6138_1705" x1="2489.09" y1="25.6582" x2="2489.09" y2="599.995" gradientUnits="userSpaceOnUse">
<stop stop-color="#74F9A3"/>
<stop offset="1" stop-color="#3F7EEA"/>
</linearGradient>
</defs>
</svg>
