<svg width="40" height="40" viewBox="0 0 40 40" fill="none" xmlns="http://www.w3.org/2000/svg">
<g clip-path="url(#clip0_3897_6044)">
<path d="M20.0007 0C11.4235 0 4.44531 6.97884 4.44531 15.557C4.44531 20.8634 6.96227 26.5604 11.9265 32.4897C15.5725 36.8447 19.1689 39.6457 19.3203 39.7629C19.5207 39.9179 19.7607 39.9954 20.0009 39.9954C20.2409 39.9954 20.4811 39.9179 20.6814 39.7629C20.8327 39.6457 24.4292 36.8447 28.0753 32.4897C33.0395 26.5604 35.5564 20.8635 35.5564 15.557C35.5561 6.97884 28.5779 0 20.0007 0Z" fill="#D62C2C"/>
<path fill-rule="evenodd" clip-rule="evenodd" d="M22.0918 22.1397C21.9044 22.0896 21.7398 21.9597 21.6518 21.7698L17.1482 12.0588V21.4948C17.1482 21.8695 16.8447 22.1732 16.4704 22.1732C16.0961 22.1732 15.7926 21.8695 15.7926 21.4948V16.475H11.2755V21.4988C11.2755 21.8735 10.9721 22.1773 10.5977 22.1773C10.2234 22.1773 9.91992 21.8735 9.91992 21.4988V9.09511C9.91992 8.72043 10.2234 8.41669 10.5977 8.41669C10.9721 8.41669 11.2755 8.72043 11.2755 9.09511V15.1181H15.7926V9.09106C15.7926 9.0476 15.7967 9.0051 15.8045 8.96392C15.8205 8.7247 15.963 8.50137 16.1956 8.3933C16.5351 8.23555 16.9381 8.38317 17.0957 8.72302L22.1809 19.6882L24.0852 13.5646C24.1965 13.2069 24.5764 13.0071 24.9339 13.1185C25.0706 13.1611 25.1843 13.2431 25.2663 13.3481C25.3044 13.3875 25.3384 13.4322 25.367 13.4818L27.0628 16.4218L27.6264 15.4447C27.7728 15.191 28.0581 15.0677 28.3306 15.1155C28.3779 15.1051 28.4269 15.0996 28.4773 15.0996H30.5503C30.9246 15.0996 31.2281 15.4033 31.2281 15.778C31.2281 16.1527 30.9246 16.4564 30.5503 16.4564H28.6081L27.7639 17.92C27.7537 17.9378 27.7428 17.9549 27.7312 17.9714C27.6871 18.1409 27.5777 18.2933 27.4142 18.3878C27.09 18.5751 26.6755 18.464 26.4883 18.1395L24.9251 15.4293L22.9735 21.7048C22.8622 22.0626 22.4823 22.2623 22.1249 22.1509L22.1129 22.1471C22.1058 22.1447 22.0988 22.1423 22.0918 22.1397Z" fill="white"/>
</g>
<path d="M19.9345 0C19.2539 0 18.5836 0.044143 17.9258 0.12917C25.5677 1.11676 31.4905 7.65956 31.4905 15.5588C31.4905 20.8658 28.9707 26.5635 24.0007 32.4935C21.6533 35.2943 19.3282 37.451 17.9259 38.6659C18.7043 39.3402 19.1994 39.7257 19.2533 39.7674C19.4539 39.9225 19.6942 40 19.9347 40C20.175 40 20.4154 39.9225 20.616 39.7674C20.7674 39.6503 24.3682 36.849 28.0184 32.4935C32.9883 26.5635 35.5082 20.8659 35.5082 15.5588C35.5079 6.97964 28.5216 0 19.9345 0Z" fill="#BA2B2B"/>
<defs>
<clipPath id="clip0_3897_6044">
<rect width="40" height="39.9954" fill="white"/>
</clipPath>
</defs>
</svg>
