<svg width="40" height="40" viewBox="0 0 40 40" fill="none" xmlns="http://www.w3.org/2000/svg">
<path d="M19.97 0C11.3839 0 4.39844 6.97964 4.39844 15.5588C4.39844 20.8658 6.918 26.5635 11.8874 32.4935C15.5372 36.849 19.1373 39.6503 19.2889 39.7674C19.4894 39.9225 19.7297 40 19.9701 40C20.2104 40 20.4508 39.9225 20.6514 39.7674C20.8028 39.6503 24.4031 36.849 28.0529 32.4935C33.0223 26.5635 35.5418 20.8659 35.5418 15.5588C35.5415 6.97964 28.5561 0 19.97 0Z" fill="#FF9900"/>
<path fill-rule="evenodd" clip-rule="evenodd" d="M22.0457 22.1035C21.865 22.0502 21.7073 21.9225 21.6217 21.7382L17.1148 12.0289V21.467C17.1148 21.8418 16.811 22.1455 16.4363 22.1455C16.0616 22.1455 15.7578 21.8418 15.7578 21.467V16.444H11.2398V21.467C11.2398 21.8418 10.936 22.1455 10.5613 22.1455C10.1866 22.1455 9.88281 21.8418 9.88281 21.467V9.06189C9.88281 8.68717 10.1866 8.38339 10.5613 8.38339C10.936 8.38339 11.2398 8.68717 11.2398 9.06189V15.087H15.7578V9.06189C15.7578 9.02277 15.7611 8.98441 15.7675 8.94709C15.778 8.70174 15.9217 8.47064 16.1599 8.36011C16.4997 8.20234 16.9032 8.34997 17.061 8.68987L22.1495 19.6521L24.0544 13.5324C24.1657 13.1746 24.5461 12.9748 24.9039 13.0862C25.0326 13.1263 25.1409 13.2012 25.2216 13.2974C25.2691 13.3419 25.3109 13.394 25.3451 13.4533L27.035 16.3803L27.5959 15.4089C27.7447 15.1511 28.0372 15.028 28.3138 15.0821C28.3593 15.0725 28.4065 15.0674 28.4549 15.0674H30.5301C30.9048 15.0674 31.2086 15.3712 31.2086 15.7459C31.2086 16.1206 30.9048 16.4244 30.5301 16.4244H28.5765L27.7335 17.8845L27.727 17.8955L27.7202 17.9066C27.6829 18.0907 27.5698 18.2585 27.3944 18.3598C27.0699 18.5472 26.6549 18.436 26.4676 18.1114L24.897 15.3912L22.9415 21.6735C22.8301 22.0313 22.4498 22.231 22.092 22.1197C22.0763 22.1148 22.0608 22.1094 22.0457 22.1035Z" fill="white"/>
<path d="M19.9694 0C19.2889 0 18.6186 0.044143 17.9609 0.12917C25.602 1.11676 31.5241 7.65956 31.5241 15.5588C31.5241 20.8658 29.0046 26.5635 24.0352 32.4935C21.6881 35.2943 19.3631 37.451 17.9611 38.6659C18.7394 39.3402 19.2344 39.7257 19.2883 39.7674C19.4889 39.9225 19.7292 40 19.9696 40C20.2099 40 20.4503 39.9225 20.6509 39.7674C20.8022 39.6503 24.4026 36.849 28.0524 32.4935C33.0217 26.5635 35.5413 20.8659 35.5413 15.5588C35.541 6.97964 28.5556 0 19.9694 0Z" fill="#D37F00"/>
</svg>
